<?xml version="1.0" encoding="UTF-8" standalone="no"?>
<!-- Created with Inkscape (http://www.inkscape.org/) -->

<svg
   version="1.1"
   id="svg2"
   width="1404.1333"
   height="1375.4667"
   viewBox="0 0 1404.1333 1375.4667"
   xmlns="http://www.w3.org/2000/svg"
   xmlns:svg="http://www.w3.org/2000/svg">
  <defs
     id="defs6" />
  <g
     id="g10"
     transform="matrix(1.3333333,0,0,-1.3333333,0,1375.4667)">
    <g
       id="g12"
       transform="scale(0.1)">
      <path
         d="M 4044.83,5087.31 V 2360.56 L 1613.15,5087.3 356.516,5087.31 v 0 V 0 H 1755.53 V 2726.73 L 4153.27,0 H 5443.85 V 5087.31 H 4044.83"
         style="fill:#ffffff;fill-opacity:1;fill-rule:nonzero;stroke:none"
         id="path14" />
      <path
         d="m 10530.2,7223.71 c 0,184.14 0,370.43 0,554.92 0,169.37 0,337.18 0,500.43 v 0 c 0,0.04 0,0.08 0,0.12 0,971.58 0,1780.62 0,1780.62 l -1368.48,0.2 h -30.55 V 8279.06 7223.71 c 0,-124.62 -19.38,-237.61 -58.55,-340.11 -49.92,-130.66 -132.02,-244.26 -247.4,-343.01 -214.8,-183.99 -527.39,-294.07 -836.73,-294.92 l -0.13,0.42 v 0.03 c -0.33,0 -0.65,0 -0.97,-0.01 -0.31,0.01 -0.63,0.01 -0.96,0.01 v -0.03 l -0.13,-0.42 c -309.35,0.85 -621.94,110.93 -836.73,294.92 -115.38,98.75 -197.48,212.35 -247.4,343.01 -39.17,102.5 -58.55,215.49 -58.55,340.11 V 8279.06 10060 h -30.55 l -1368.46,-0.2 c 0,0 0,-809.04 0,-1780.62 -0.01,-0.04 -0.01,-0.08 -0.02,-0.12 h 0.02 c 0,-163.25 0,-331.06 0,-500.43 0,-184.49 0,-370.78 0,-554.92 V 6883.6 h -0.02 c 0,-1124.76 1214.59,-2018.56 2478.01,-2036.48 13.09,-0.19 26.17,-0.46 39.31,-0.46 5.01,0 9.99,0.12 14.99,0.17 3.18,-0.02 6.36,-0.08 9.53,-0.12 v -0.03 c 0.33,0 0.65,0.01 0.96,0.01 0.32,0 0.64,-0.01 0.97,-0.01 0.58,-0.01 1.16,-0.02 1.74,-0.02 l -0.56,0.06 c 2.78,0.05 5.56,0.09 8.35,0.11 4.99,-0.05 9.98,-0.17 14.99,-0.17 13.14,0 26.21,0.27 39.31,0.46 1263.42,17.92 2478.01,885.98 2478.01,2036.48 v 0 340.11"
         style="fill:#ffffff;fill-opacity:1;fill-rule:nonzero;stroke:none"
         id="path16" />
      <path
         d="m 3920.2,6883.59 c -225.75,-376.65 -628.73,-629.26 -1089.67,-635.68 -5.99,-0.08 -11.93,-0.3 -17.94,-0.3 -717.65,0 -1299.43,597.1 -1299.56,1333.72 0.13,736.61 581.91,1333.71 1299.56,1333.71 6.01,0 11.95,-0.22 17.94,-0.3 460.94,-6.42 863.92,-259.02 1089.67,-635.68 h 1524.23 c 0,1147.65 -1208.59,2014.14 -2468.64,2036.24 -3.13,0.1 -6.23,0.2 -9.37,0.2 -13.09,0.2 -26.17,0.5 -39.31,0.5 -5.04,0 -10.04,-0.1 -15.06,-0.2 -2.76,0 -5.52,0.1 -8.27,0.1 l 0.56,0.1 c -0.59,0 -1.17,0 -1.75,0 -0.33,0 -0.65,0 -0.96,0 -0.32,0 -0.65,0 -0.97,0 v -0.1 c -3.17,0 -6.35,-0.1 -9.53,-0.1 -5,0.1 -9.98,0.2 -14.99,0.2 -13.1,0 -26.12,-0.3 -39.17,-0.5 H 2734.44 C 1733.31,10315.5 858.012,9777.43 381.551,8974.77 139.344,8566.75 0.0859375,8090.45 0.00390625,7581.56 h -0.0078125 c 0,-0.08 0,-0.16 0,-0.23 0,-0.08 0,-0.16 0,-0.23 h 0.0078125 C 0.0859375,7072.2 139.344,6595.9 381.551,6187.88 858.012,5385.23 1733.31,4847.12 2734.44,4847.12 h 102.53 c 13.05,-0.19 26.07,-0.46 39.17,-0.46 5.01,0 9.99,0.12 14.99,0.17 3.18,-0.02 6.36,-0.08 9.53,-0.12 v -0.03 c 0.32,0 0.65,0.01 0.97,0.01 0.31,0 0.63,-0.01 0.96,-0.01 0.58,-0.01 1.16,-0.02 1.75,-0.02 l -0.56,0.06 c 2.75,0.05 5.51,0.09 8.27,0.11 5.02,-0.06 10.02,-0.17 15.06,-0.17 13.14,0 26.22,0.27 39.31,0.46 3.14,0.05 6.24,0.17 9.37,0.23 1260.05,22.06 2468.64,888.6 2468.64,2036.24 H 3920.2"
         style="fill:#ffffff;fill-opacity:1;fill-rule:nonzero;stroke:none"
         id="path18" />
      <path
         d="M 9131.96,5087.31 7987.39,2753.25 6842.82,5087.31 H 5443.81 L 7287.89,1326.78 V 0 H 8686.9 V 1326.78 L 10531,5087.31 H 9131.96"
         style="fill:#ffffff;fill-opacity:1;fill-rule:nonzero;stroke:none"
         id="path20" />
    </g>
  </g>
</svg>
